<?xml version="1.0" encoding="UTF-8"?>
<svg id="_Шар_1" data-name="Шар_1" xmlns="http://www.w3.org/2000/svg" version="1.1" viewBox="0 0 1975.68 320.16">
  <!-- Generator: Adobe Illustrator 29.5.0, SVG Export Plug-In . SVG Version: 2.1.0 Build 137)  -->
  <defs>
    <style>
      .st0 {
        fill: #fff;
      }
    </style>
  </defs>
  <path class="st0" d="M120.72,250.61c-11.84,0-20.78-4.6-26.83-13.81-6.05-9.2-9.07-21.83-9.07-37.87,0-37.61,11.97-56.42,35.9-56.42,8.94,0,16.18,2.83,21.7,8.48,5.52,5.66,8.29,12.69,8.29,21.11h83.25c-2.9-28.67-14.93-49.97-36.1-63.91-21.17-13.94-46.89-20.91-77.13-20.91-34.98,0-63.39,9.93-85.22,29.79C13.66,136.92,2.75,164.08,2.75,198.53s11.05,60.3,33.14,79.1c22.09,18.81,50.36,28.21,84.82,28.21,31.03,0,57.07-6.96,78.12-20.91,21.04-13.94,33.27-35.64,36.69-65.1h-82.85c-2.9,20.52-13.55,30.77-31.96,30.77Z"/>
  <path class="st0" d="M453.5,116.67c-21.17-19.59-49.91-29.39-86.2-29.39s-63.91,9.8-85.22,29.39c-21.3,19.6-31.96,47.02-31.96,82.26s10.98,60.56,32.94,79.1c21.96,18.54,50.17,27.81,84.63,27.81s63.32-9.47,85.02-28.41c21.7-18.94,32.55-46.56,32.55-82.85,0-32.35-10.59-58.32-31.76-77.92ZM367.69,250.61c-11.05,0-19.73-4.6-26.04-13.81-6.31-9.2-9.47-23.28-9.47-42.21,0-13.94,2.89-26.1,8.68-36.49,5.78-10.39,14.99-15.58,27.62-15.58,10.26,0,18.6,4.87,25.05,14.6,6.44,9.74,9.67,22.23,9.67,37.48,0,37.35-11.84,56.02-35.51,56.02Z"/>
  <path class="st0" d="M654.11,87.28c-27.62,0-50.89,12.76-69.83,38.27v-32.35h-74.96v206.73h82.06v-105.34c0-14.2,2.3-24.85,6.9-31.96,4.6-7.1,12.95-10.65,25.05-10.65,19.2,0,28.8,12.89,28.8,38.66v109.29h82.06v-123.88c0-59.18-26.7-88.77-80.09-88.77Z"/>
  <path class="st0" d="M862.81,28.88h-82.06v64.31h-29.2v47.34h29.2v86.4c0,7.63.06,14.14.2,19.53.13,5.39.79,10.59,1.97,15.58,1.18,5,2.23,9.07,3.16,12.23.92,3.16,2.96,6.18,6.12,9.07,3.16,2.9,5.85,5.2,8.09,6.9,2.23,1.71,6.25,3.22,12.03,4.54,5.78,1.32,10.85,2.24,15.19,2.76,4.34.53,10.98,1.05,19.92,1.58,8.94.53,16.96.79,24.07.79h29.98v-58.78h-13.02c-11.05,0-18.09-1.78-21.11-5.33-3.03-3.55-4.54-10.32-4.54-20.32v-74.96h39.45v-47.34h-39.45V28.88Z"/>
  <path class="st0" d="M1068.56,87.47c-1.18-.13-2.31-.2-3.35-.2-31.04,0-52.21,15.92-63.52,47.74h-.79v-41.82h-74.57v206.73h82.06v-71.41c0-21.83,4.07-37.34,12.23-46.55,8.15-9.2,20.91-13.81,38.27-13.81.26,0,5.92.79,16.97,2.37v-82.06c-.79,0-1.91-.13-3.35-.39-1.45-.26-2.76-.46-3.95-.59Z"/>
  <path class="st0" d="M1313.56,284.93c-1.18-3.41-1.78-8.55-1.78-15.39v-96.66c0-9.73-.33-17.62-.99-23.67-.66-6.05-2.04-12.75-4.14-20.12-2.11-7.36-5.46-13.28-10.06-17.75-4.6-4.47-10.65-8.68-18.15-12.62-7.5-3.95-17.1-6.84-28.8-8.68-11.71-1.84-25.58-2.76-41.62-2.76-39.45,0-68.12,5.92-86.01,17.75-17.89,11.84-26.83,29.07-26.83,51.68h78.9c1.58-13.41,11.18-20.12,28.8-20.12s26.83,5.66,26.83,16.96c0,5.79-3.62,10.33-10.85,13.61-7.24,3.29-16.31,5.33-27.22,6.11-10.92.79-22.75,2.37-35.51,4.73-12.76,2.37-24.6,5.39-35.51,9.07-10.92,3.69-19.99,10.33-27.22,19.92-7.24,9.61-10.85,21.77-10.85,36.5,0,20.26,7.03,35.7,21.11,46.36,14.07,10.65,31.62,15.98,52.67,15.98,31.82,0,57.73-9.33,77.72-28.01l3.95,22.09h84.82v-3.95c-5-3.95-8.09-7.62-9.27-11.05ZM1221.83,246.66c-5.26,8.42-14.73,12.63-28.41,12.63-7.89,0-14.2-1.58-18.94-4.73s-7.1-7.36-7.1-12.62c0-7.89,2.96-13.54,8.88-16.97,5.92-3.41,14.79-6.31,26.63-8.68,11.84-2.37,20.78-4.99,26.83-7.89,0,17.1-2.63,29.85-7.89,38.27Z"/>
  <path class="st0" d="M1569.8,273.1c-1.58-.26-4.14.59-7.69,2.57-3.55,1.97-6.38,2.83-8.48,2.56-6.05-.79-9.07-7.5-9.07-20.12,0-4.2.06-35.57.2-94.09.13-58.52.2-92.78.2-102.77v-16.57c0-20.77-5.39-32.87-16.18-36.3-11.05-3.68-25.98-4.4-44.78-2.17-18.81,2.24-33.73,6.65-44.78,13.22-3.95,2.11-5.52,5.59-4.73,10.46.79,4.87,3.42,7.56,7.89,8.09,3.16,0,5.39.14,6.71.39,1.31.27,2.63.79,3.95,1.58,1.31.79,2.17,2.04,2.56,3.75.4,1.71.59,4.14.59,7.3v66.68c-8.95-4.2-18.81-6.84-29.59-7.89-29.99-2.37-54.25,5.52-72.79,23.67-18.54,18.15-27.56,42.87-27.03,74.17.26,31.56,9.53,56.36,27.81,74.37,18.28,18.01,41.62,25.84,70.03,23.48,16.57-1.58,31.3-6.31,44.19-14.2,9.99,8.68,24.72,13.28,44.19,13.81,11.05.26,20.91-.66,29.59-2.76,17.09-3.68,27.22-10.39,30.38-20.12,1.58-4.99.52-8.02-3.15-9.07ZM1462.29,259.88c-.92,11.18-5.72,17.56-14.4,19.14-8.68,1.58-15.13-2.56-19.33-12.43-4.21-9.86-8.81-29.65-13.81-59.38-5-28.66-7.04-47.93-6.12-57.8.92-9.86,5.72-15.58,14.4-17.16,8.68-1.58,15.12,2.04,19.33,10.85,4.2,8.82,8.81,27.81,13.81,57.01,4.99,28.67,7.03,48.59,6.11,59.77Z"/>
  <path class="st0" d="M1606.29,72.48c9.33,7.5,22.42,11.24,39.26,11.24s29.85-3.68,39.06-11.05c9.2-7.36,13.81-17.88,13.81-31.56s-4.61-23.41-13.81-30.77c-9.21-7.36-22.23-11.05-39.06-11.05s-29.92,3.69-39.26,11.05c-9.34,7.37-14.01,17.62-14.01,30.77s4.67,23.87,14.01,31.36Z"/>
  <path class="st0" d="M1713.4,282.96c-3.16-2.1-5.39-3.55-6.71-4.34-6.84-4.2-10.26-9.99-10.26-17.36v-107.31c0-20.77-5.39-32.88-16.17-36.3-12.63-3.95-29.66-4.54-51.09-1.78-21.44,2.76-38.34,7.69-50.7,14.79-3.95,2.11-5.52,5.66-4.73,10.65.79,5,3.29,7.63,7.5,7.89,1.58,0,5.19-.33,10.85-.99,5.65-.65,9.66-.46,12.03.59,2.37,1.05,3.55,3.42,3.55,7.1v105.34c0,7.89-3.55,13.55-10.65,16.97-3.42,1.84-6.06,3.42-7.89,4.73-3.42,2.37-4.47,5.79-3.16,10.26,1.31,4.47,3.95,6.71,7.89,6.71h114.41c3.94,0,6.64-2.23,8.09-6.71,1.44-4.47.46-7.89-2.96-10.26Z"/>
  <path class="st0" d="M1971.81,273.1c-1.58-.26-4.08.59-7.5,2.57-3.42,1.97-6.18,2.83-8.28,2.56-6.05-.79-9.07-7.5-9.07-20.12,0-28.14.13-51.29.39-69.44,0-26.83-9.93-46.62-29.79-59.38-19.86-12.75-46.1-19.14-78.71-19.14-27.88-.26-50.44,3.35-67.66,10.85-17.23,7.5-26.24,17.3-27.03,29.39-.53,8.42,4.01,14.67,13.61,18.74,9.6,4.08,19.66,4.93,30.18,2.56,10.52-2.37,16.83-7.23,18.94-14.6,1.58-5.26,2.76-8.94,3.55-11.05.79-2.1,2.17-4.8,4.14-8.09,1.97-3.29,4.54-5.46,7.69-6.51,3.16-1.05,7.1-1.58,11.84-1.58,8.41.27,14.4,3.95,17.95,11.05s5.33,18.28,5.33,33.54v13.41c-6.58-2.1-15.26-3.41-26.04-3.95-10.79-.52-22.75.27-35.9,2.37-13.16,2.11-25.32,5.59-36.49,10.46-11.18,4.87-20.26,12.56-27.22,23.08-6.97,10.52-9.8,23.02-8.48,37.48,1.58,14.73,8.48,26.43,20.71,35.11,12.23,8.68,27.28,13.02,45.17,13.02,14.99,0,28.67-3.1,41.03-9.27,12.36-6.18,21.57-14.92,27.62-26.23,2.1,11.31,8.41,19.92,18.94,25.84,10.52,5.92,23.41,9.01,38.66,9.27,10.52,0,20.12-.92,28.8-2.76,17.09-3.68,27.35-10.26,30.77-19.73,1.58-5.26.52-8.41-3.16-9.47ZM1857.01,229.7c-.53,25.25-7.89,38.01-22.09,38.27-8.68.27-15.13-2.76-19.33-9.07-4.21-6.31-5.92-14.46-5.13-24.46.79-9.21,3.29-16.31,7.5-21.3,4.21-4.99,9.07-7.76,14.6-8.28,5.52-.52,10.32-.46,14.4.2,4.07.66,7.56,1.65,10.45,2.96l-.39,21.7Z"/>
</svg>